<svg width="128" height="20" viewBox="0 0 128 20" fill="none" xmlns="http://www.w3.org/2000/svg">
<path d="M5.98 13.08H6.84V15.08C6.5 15.12 6 15.14 5.34 15.14C3.32 15.14 2.12 14.18 2.12 12.08V6.58H0.38V4.6H2.12V1.94H4.68V4.6H6.72V6.58H4.68V11.68C4.68 12.62 5.04 13.08 5.98 13.08ZM12.947 15.2C10.207 15.2 7.78703 13.42 7.78703 9.8C7.78703 6.18 10.207 4.4 12.947 4.4C15.667 4.4 18.107 6.18 18.107 9.8C18.107 13.42 15.667 15.2 12.947 15.2ZM12.947 13.06C14.547 13.06 15.687 11.96 15.687 9.8C15.687 7.64 14.547 6.54 12.947 6.54C11.327 6.54 10.187 7.64 10.187 9.8C10.187 11.96 11.327 13.06 12.947 13.06ZM24.3198 13.08H25.1798V15.08C24.8398 15.12 24.3398 15.14 23.6798 15.14C21.6598 15.14 20.4598 14.18 20.4598 12.08V6.58H18.7198V4.6H20.4598V1.94H23.0198V4.6H25.0598V6.58H23.0198V11.68C23.0198 12.62 23.3798 13.08 24.3198 13.08ZM31.1669 4.4C34.1869 4.4 35.4669 5.48 35.4669 7.82V15H33.0269V13.16H32.9269C32.7669 13.88 31.6269 15.2 29.4669 15.2C27.5669 15.2 26.1269 14.26 26.1269 12.34C26.1269 10.42 27.5069 9.7 29.6869 9.4L31.7269 9.12C32.6669 9.02 32.9069 8.78 32.9069 8.16V7.94C32.9069 6.72 32.2669 6.3 31.0669 6.3C29.7869 6.3 29.1469 6.8 29.1469 7.78V7.9L26.7269 7.94V7.54C26.7269 5.44 28.2069 4.4 31.1669 4.4ZM32.9069 11.42V10.12C32.8069 10.34 32.5069 10.42 31.7869 10.52L30.3069 10.72C29.1869 10.9 28.6469 11.28 28.6469 12.02C28.6469 12.8 29.1869 13.32 30.3669 13.32C32.0069 13.32 32.9069 12.2 32.9069 11.42ZM37.623 15V0.999999H40.183V15H37.623ZM49.51 4.6H52.07V14.68C52.07 16.34 51.55 17.52 50.49 18.18C49.43 18.84 48.19 19.18 46.81 19.18C45.57 19.18 44.47 18.92 43.53 18.42C42.57 17.9 42.09 17 42.07 15.7H44.33C44.39 16.68 45.47 17.2 46.75 17.2C48.37 17.2 49.51 16.36 49.51 14.68V13.18C48.89 14.14 47.71 14.74 46.27 14.74C43.97 14.74 41.83 13.2 41.83 9.58C41.83 5.98 44.01 4.4 46.27 4.4C47.71 4.4 48.89 5 49.51 5.96V4.6ZM46.93 12.62C48.45 12.62 49.61 11.52 49.61 9.58C49.61 7.6 48.45 6.54 46.93 6.54C45.41 6.54 44.23 7.6 44.23 9.58C44.23 11.52 45.41 12.62 46.93 12.62ZM59.905 4.52C60.205 4.52 60.465 4.56 60.705 4.62V6.78C60.405 6.74 60.125 6.72 59.905 6.72C58.065 6.72 56.765 7.84 56.765 10.16V15H54.205V4.6H56.765V7.08H56.825C57.205 5.56 58.245 4.52 59.905 4.52ZM66.5213 15.2C63.7813 15.2 61.3613 13.42 61.3613 9.8C61.3613 6.18 63.7813 4.4 66.5213 4.4C69.2413 4.4 71.6813 6.18 71.6813 9.8C71.6813 13.42 69.2413 15.2 66.5213 15.2ZM66.5213 13.06C68.1213 13.06 69.2613 11.96 69.2613 9.8C69.2613 7.64 68.1213 6.54 66.5213 6.54C64.9013 6.54 63.7613 7.64 63.7613 9.8C63.7613 11.96 64.9013 13.06 66.5213 13.06ZM75.0555 15L72.2355 4.6H74.6555L76.5955 12.5H76.6755L78.9355 4.6H81.1555L83.4155 12.5H83.4955L85.4355 4.6H87.8755L85.0355 15H82.1555L80.0555 8L77.9355 15H75.0555ZM94.2222 13.08H95.0822V15.08C94.7422 15.12 94.2422 15.14 93.5822 15.14C91.5622 15.14 90.3622 14.18 90.3622 12.08V6.58H88.6222V4.6H90.3622V1.94H92.9222V4.6H94.9622V6.58H92.9222V11.68C92.9222 12.62 93.2822 13.08 94.2222 13.08ZM102.667 4.4C104.827 4.4 106.287 5.76 106.287 8.46V15H103.727V9.06C103.727 7.38 102.987 6.52 101.607 6.52C100.147 6.52 99.1869 7.4 99.1869 9.06V15H96.6269V0.999999H99.1869V6.74H99.2669C99.5069 5.72 100.587 4.4 102.667 4.4Z" fill="white"/>
<path d="M109.723 15.2C108.843 15.2 108.143 14.5 108.143 13.64C108.143 12.76 108.843 12.06 109.723 12.06C110.603 12.06 111.323 12.76 111.323 13.64C111.323 14.5 110.603 15.2 109.723 15.2ZM114.45 3.14C113.65 3.14 112.99 2.52 112.99 1.74C112.99 0.94 113.65 0.319999 114.45 0.319999C115.23 0.319999 115.89 0.94 115.89 1.74C115.89 2.52 115.23 3.14 114.45 3.14ZM113.17 15V4.6H115.73V15H113.17ZM122.537 15.2C119.797 15.2 117.377 13.42 117.377 9.8C117.377 6.18 119.797 4.4 122.537 4.4C125.257 4.4 127.697 6.18 127.697 9.8C127.697 13.42 125.257 15.2 122.537 15.2ZM122.537 13.06C124.137 13.06 125.277 11.96 125.277 9.8C125.277 7.64 124.137 6.54 122.537 6.54C120.917 6.54 119.777 7.64 119.777 9.8C119.777 11.96 120.917 13.06 122.537 13.06Z" fill="url(#paint0_linear_1_406)"/>
<defs>
<linearGradient id="paint0_linear_1_406" x1="111.5" y1="15" x2="149" y2="-6" gradientUnits="userSpaceOnUse">
<stop stop-color="#6972DE"/>
<stop offset="1" stop-color="#6972DE" stop-opacity="0"/>
</linearGradient>
</defs>
</svg>
